<svg id="Calque_1" data-name="Calque 1" xmlns="http://www.w3.org/2000/svg" viewBox="0 0 113.72 105.38"><defs><style>.cls-1{opacity:0.7;}.cls-10,.cls-11,.cls-12,.cls-2,.cls-3,.cls-5,.cls-7{fill:none;}.cls-2{stroke:#f15a29;}.cls-10,.cls-11,.cls-12,.cls-13,.cls-2{stroke-linejoin:round;}.cls-10,.cls-11,.cls-12,.cls-13,.cls-2,.cls-4,.cls-6,.cls-7,.cls-8,.cls-9{stroke-width:2px;}.cls-4{fill:#ffde17;}.cls-11,.cls-4{stroke:#fbb040;}.cls-4,.cls-5,.cls-6,.cls-7,.cls-8,.cls-9{stroke-miterlimit:10;}.cls-5{stroke:#f7941d;stroke-width:3px;}.cls-6{fill:#e6e7e8;}.cls-12,.cls-6,.cls-7{stroke:#d1d3d4;}.cls-8{fill:#603913;stroke:#3c2415;}.cls-13,.cls-9{fill:#754c29;}.cls-10,.cls-13,.cls-9{stroke:#603913;}</style></defs><g id="Layer_7" data-name="Layer 7" class="cls-1"><path class="cls-2" d="M68.82,7.67c30.56,3.72,52,29.22,47.92,57-2.2,14.9-11.57,28.14-25.58,36.14" transform="translate(-4.52 -4.19)"/><path class="cls-2" d="M31.61,100.76C5.52,85.85-2.32,54.57,14.11,30.89,22.94,18.18,37.53,9.67,53.94,7.67" transform="translate(-4.52 -4.19)"/><ellipse class="cls-3" cx="56.86" cy="53.71" rx="55.83" ry="50.67"/><ellipse class="cls-3" cx="56.86" cy="53.71" rx="48.38" ry="43.91"/><path class="cls-4" d="M65.61,40.67l.24-.16a14.81,14.81,0,0,0,6.7-12.16V27a14.38,14.38,0,0,0-2.81-8.45L61.38,7.23v4.55A12.91,12.91,0,0,1,57,21.32L52.93,25a8.08,8.08,0,0,0-2.71,6v.72a8.2,8.2,0,0,0,3.72,6.76l3.22,2.19a2,2,0,0,0,1.11.34h6.22A2,2,0,0,0,65.61,40.67Z" transform="translate(-4.52 -4.19)"/><path class="cls-5" d="M60.26,40.51A14.79,14.79,0,0,0,67,28.35V27a14.31,14.31,0,0,0-2.81-8.45l-3.07-4.15a13.11,13.11,0,0,1-4,6.89L52.93,25a8.08,8.08,0,0,0-2.71,6v.72a8.2,8.2,0,0,0,3.72,6.76l3.22,2.19a2,2,0,0,0,1.11.34h.64A2,2,0,0,0,60,40.67Z" transform="translate(-4.52 -4.19)"/><path class="cls-6" d="M46.49,47.77H76.27c4.11,0,7.44,3,7.44,6.75V95.06H39.05V54.52C39.05,50.79,42.38,47.77,46.49,47.77Z" transform="translate(-4.52 -4.19)"/><path class="cls-6" d="M50.22,47.77V63a3.56,3.56,0,0,0,3.72,3.38h0A3.57,3.57,0,0,0,57.66,63V61.28a3.56,3.56,0,0,1,3.72-3.38h0a3.56,3.56,0,0,1,3.72,3.38V73.1a3.56,3.56,0,0,0,3.72,3.38h0a3.57,3.57,0,0,0,3.73-3.38V68a3.56,3.56,0,0,1,3.72-3.37h0A3.56,3.56,0,0,1,80,68V81.55a3.56,3.56,0,0,0,3.72,3.37h0a3.56,3.56,0,0,0,3.72-3.37v-27c0-3.73-3.33-6.75-7.44-6.75Z" transform="translate(-4.52 -4.19)"/><path class="cls-7" d="M52.08,65.87A3.34,3.34,0,0,0,53.94,63V61.28a3.57,3.57,0,0,1,3.74-3.36,4,4,0,0,1,1.84.45,3.93,3.93,0,0,1,5.08,1.24,3.05,3.05,0,0,1,.5,1.67V73.1A3.36,3.36,0,0,0,67,76a3.32,3.32,0,0,0,1.86-2.91V68a3.57,3.57,0,0,1,3.75-3.35,4,4,0,0,1,1.84.45,3.93,3.93,0,0,1,5.08,1.24A3.1,3.1,0,0,1,80,68V81.55a3.35,3.35,0,0,0,1.86,2.9,3.33,3.33,0,0,0,1.86-2.9v-27c0-3.73-3.33-6.75-7.44-6.75h-26V63A3.3,3.3,0,0,0,52.08,65.87Z" transform="translate(-4.52 -4.19)"/><rect class="cls-8" x="27.09" y="90.87" width="59.55" height="6.76"/><rect class="cls-9" x="23.36" y="97.62" width="66.99" height="6.76"/><rect class="cls-10" x="23.36" y="97.62" width="66.99" height="6.76"/><path class="cls-11" d="M65.61,40.67l.24-.16a14.81,14.81,0,0,0,6.7-12.16V27a14.38,14.38,0,0,0-2.81-8.45L61.38,7.23v4.55A12.91,12.91,0,0,1,57,21.32L52.93,25a8.08,8.08,0,0,0-2.71,6v.72a8.2,8.2,0,0,0,3.72,6.76l3.22,2.19a2,2,0,0,0,1.11.34h6.22A2,2,0,0,0,65.61,40.67Z" transform="translate(-4.52 -4.19)"/><path class="cls-12" d="M50.22,47.77V63a3.56,3.56,0,0,0,3.72,3.38h0A3.57,3.57,0,0,0,57.66,63V61.28a3.56,3.56,0,0,1,3.72-3.38h0a3.56,3.56,0,0,1,3.72,3.38V73.1a3.56,3.56,0,0,0,3.72,3.38h0a3.57,3.57,0,0,0,3.73-3.38V68a3.56,3.56,0,0,1,3.72-3.37h0A3.56,3.56,0,0,1,80,68V81.55a3.56,3.56,0,0,0,3.72,3.37h0a3.56,3.56,0,0,0,3.72-3.37v-27c0-3.73-3.33-6.75-7.44-6.75H46.49c-4.11,0-7.44,3-7.44,6.75V95.06H83.71V84.92" transform="translate(-4.52 -4.19)"/><path class="cls-2" d="M28.35,90C8.82,73.44,7.77,45.65,26,27.93A50,50,0,0,1,52.08,14.8" transform="translate(-4.52 -4.19)"/><path class="cls-2" d="M74.41,15.68c25.72,6.56,40.72,30.8,33.49,54.15A43.36,43.36,0,0,1,94.41,90" transform="translate(-4.52 -4.19)"/><rect class="cls-13" x="27.09" y="90.87" width="59.55" height="6.76"/></g></svg>