<svg id="Calque_1" xmlns="http://www.w3.org/2000/svg" xmlns:xlink="http://www.w3.org/1999/xlink" viewBox="0 0 403.25 103.86"><defs><style>.cls-1{opacity:0.7;}.cls-10,.cls-11,.cls-2,.cls-3,.cls-4,.cls-5,.cls-6,.cls-7,.cls-8,.cls-9{fill:none;}.cls-2{stroke:#fbb040;}.cls-10,.cls-11,.cls-2,.cls-8,.cls-9{stroke-linejoin:round;}.cls-4{stroke:#ffde17;}.cls-12,.cls-4,.cls-5,.cls-6,.cls-7{stroke-miterlimit:10;}.cls-10,.cls-5{stroke:#d1d3d4;}.cls-6{stroke:#3c2415;}.cls-7,.cls-8{stroke:#603913;}.cls-10,.cls-8,.cls-9{stroke-width:2px;}.cls-9{stroke:url(#Dégradé_sans_nom_173);}.cls-11{stroke:#f7941d;}.cls-12{fill:#6c2515;stroke:#a46d3a;stroke-width:0.75px;}</style><linearGradient id="Dégradé_sans_nom_173" x1="219.46" y1="10.06" x2="219.46" y2="45.83" gradientUnits="userSpaceOnUse"><stop offset="0" stop-color="#fff33b"/><stop offset="0.05" stop-color="#fee72e"/><stop offset="0.15" stop-color="#fed51b"/><stop offset="0.25" stop-color="#fdca10"/><stop offset="0.35" stop-color="#fdc70c"/><stop offset="0.72" stop-color="#ed683c"/><stop offset="0.85" stop-color="#f3903f"/><stop offset="1" stop-color="#e8e613"/></linearGradient></defs><g id="Layer_7"  class="cls-1"><path class="cls-2" d="M226.9,11.49c30.56,3.72,52,29.22,47.92,57-2.2,14.9-11.57,28.14-25.59,36.15" transform="translate(-16.13 -9.53)"/><path class="cls-2" d="M189.69,104.59c-26.1-14.92-33.93-46.2-17.5-69.88C181,22,195.6,13.49,212,11.49" transform="translate(-16.13 -9.53)"/><ellipse class="cls-3" cx="203.33" cy="52.19" rx="55.83" ry="50.67"/><ellipse class="cls-3" cx="203.33" cy="52.19" rx="48.38" ry="43.91"/><path class="cls-4" d="M223.68,44.5l.25-.17a14.8,14.8,0,0,0,6.7-12.16V30.85a14.38,14.38,0,0,0-2.81-8.45l-8.36-11.34V15.6a12.91,12.91,0,0,1-4.35,9.54L211,28.86a8.09,8.09,0,0,0-2.72,6v.72A8.21,8.21,0,0,0,212,42.3l3.22,2.2a2,2,0,0,0,1.11.33h6.22A2,2,0,0,0,223.68,44.5Z" transform="translate(-16.13 -9.53)"/><path class="cls-4" d="M218.34,44.33A14.77,14.77,0,0,0,225,32.17V30.85a14.31,14.31,0,0,0-2.81-8.45l-3.07-4.15a13.11,13.11,0,0,1-4,6.89L211,28.86a8.09,8.09,0,0,0-2.72,6v.72A8.21,8.21,0,0,0,212,42.3l3.22,2.2a2,2,0,0,0,1.11.33H217a2,2,0,0,0,1.11-.33Z" transform="translate(-16.13 -9.53)"/><path class="cls-5" d="M204.57,51.59h29.78c4.11,0,7.44,3,7.44,6.75V98.88H197.13V58.34C197.13,54.61,200.46,51.59,204.57,51.59Z" transform="translate(-16.13 -9.53)"/><path class="cls-5" d="M208.29,51.59v15.2A3.57,3.57,0,0,0,212,70.17h0a3.57,3.57,0,0,0,3.72-3.38V65.1a3.56,3.56,0,0,1,3.72-3.38h0a3.56,3.56,0,0,1,3.72,3.38V76.92a3.56,3.56,0,0,0,3.72,3.38h0a3.57,3.57,0,0,0,3.73-3.38V71.86a3.56,3.56,0,0,1,3.72-3.38h0a3.56,3.56,0,0,1,3.72,3.38V85.37a3.56,3.56,0,0,0,3.72,3.37h0a3.56,3.56,0,0,0,3.72-3.37v-27c0-3.73-3.33-6.75-7.44-6.75Z" transform="translate(-16.13 -9.53)"/><path class="cls-5" d="M210.16,69.69a3.34,3.34,0,0,0,1.86-2.9V65.1a3.57,3.57,0,0,1,3.74-3.36,4.13,4.13,0,0,1,1.84.45,3.94,3.94,0,0,1,5.08,1.24,3.05,3.05,0,0,1,.5,1.67V76.92A3.36,3.36,0,0,0,225,79.83a3.32,3.32,0,0,0,1.86-2.91V71.86a3.57,3.57,0,0,1,3.75-3.36,4,4,0,0,1,1.84.45,3.93,3.93,0,0,1,5.08,1.24,3.11,3.11,0,0,1,.5,1.67V85.37a3.34,3.34,0,0,0,1.86,2.9,3.34,3.34,0,0,0,1.86-2.9v-27c0-3.73-3.33-6.75-7.44-6.75H208.29v15.2A3.33,3.33,0,0,0,210.16,69.69Z" transform="translate(-16.13 -9.53)"/><rect class="cls-6" x="173.55" y="89.34" width="59.55" height="6.76"/><rect class="cls-7" x="169.83" y="96.1" width="66.99" height="6.76"/><rect class="cls-8" x="169.83" y="96.1" width="66.99" height="6.76"/><path class="cls-9" d="M223.68,44.5l.25-.17a14.8,14.8,0,0,0,6.7-12.16V30.85a14.38,14.38,0,0,0-2.81-8.45l-8.36-11.34V15.6a12.91,12.91,0,0,1-4.35,9.54L211,28.86a8.09,8.09,0,0,0-2.72,6v.72A8.21,8.21,0,0,0,212,42.3l3.22,2.2a2,2,0,0,0,1.11.33h6.22A2,2,0,0,0,223.68,44.5Z" transform="translate(-16.13 -9.53)"/><path class="cls-10" d="M208.29,51.59v15.2A3.57,3.57,0,0,0,212,70.17h0a3.57,3.57,0,0,0,3.72-3.38V65.1a3.56,3.56,0,0,1,3.72-3.38h0a3.56,3.56,0,0,1,3.72,3.38V76.92a3.56,3.56,0,0,0,3.72,3.38h0a3.57,3.57,0,0,0,3.73-3.38V71.86a3.56,3.56,0,0,1,3.72-3.38h0a3.56,3.56,0,0,1,3.72,3.38V85.37a3.56,3.56,0,0,0,3.72,3.37h0a3.56,3.56,0,0,0,3.72-3.37v-27c0-3.73-3.33-6.75-7.44-6.75h-33.5c-4.11,0-7.44,3-7.44,6.75V98.88h44.66V88.74" transform="translate(-16.13 -9.53)"/><path class="cls-11" d="M186.43,93.81c-19.53-16.55-20.58-44.34-2.35-62.06a50,50,0,0,1,26.08-13.13" transform="translate(-16.13 -9.53)"/><path class="cls-11" d="M232.49,19.5c25.72,6.56,40.72,30.8,33.49,54.15a43.36,43.36,0,0,1-13.49,20.16" transform="translate(-16.13 -9.53)"/><rect class="cls-8" x="173.55" y="89.34" width="59.55" height="6.76"/></g><path class="cls-12" d="M45,87.18V84.75c4.59-.63,4.79-1.39,3.78-4.36-.8-2.39-2.05-5.76-3.28-9.22H31C30,73.76,29,76.52,28.19,79c-1.54,4.59-.06,5.17,5.7,5.75v2.43H16.51V84.75c4.53-.58,5.69-1.18,8.16-7.38L39.62,39.94l3.05-.57c4.59,12.46,9.51,25.55,14.14,37.73,2.54,6.54,3.19,7.07,8,7.65v2.43Zm-6.64-35.8c-2.16,5.54-4.33,11-6.26,16.37H44.29Z" transform="translate(-16.13 -9.53)"/><path class="cls-12" d="M96.1,85.48a125.2,125.2,0,0,0-12.75,2.57V82.93C80.07,85.65,77,88.05,73,88.05c-5.62,0-9.28-3.56-9.28-10.48V63c0-3.52-.48-3.9-2.37-4.36l-1.69-.4V56.08c3.47-.14,8.83-.72,12.31-1.24-.17,2.77-.22,6.41-.22,10.74V75.84c0,5.26,2.71,6.92,5.48,6.92a8.12,8.12,0,0,0,6.09-2.56V63c0-3.51-.54-4.06-2.7-4.42l-2.21-.38V56.08a127.3,127.3,0,0,0,13-1.24v23.7c0,3.69.49,4.38,2.94,4.57l1.74.12Z" transform="translate(-16.13 -9.53)"/><path class="cls-12" d="M150,75.1a98.24,98.24,0,0,1-4,11.34,63.39,63.39,0,0,1-13.23,1.82c-18.61,0-26.88-12.1-26.88-24,0-14.83,11.3-24.94,28.18-24.94,6.24,0,11.61,1.44,13.61,1.71.33,3.33.84,8.3,1.37,11.62l-2.66.51c-1.48-5.34-3.49-8.11-7.26-9.62a18.73,18.73,0,0,0-6.72-1.13c-10.94,0-16.55,8.74-16.55,20.24,0,13.43,6.92,22.36,17.41,22.36,6.5,0,10.39-3.24,14.2-10.91Z" transform="translate(-16.13 -9.53)"/><path class="cls-12" d="M167.07,54.48A15.82,15.82,0,0,1,183.33,70.7c0,11.62-8.46,17.35-16.45,17.35a16.21,16.21,0,0,1-16.69-16.43A16.8,16.8,0,0,1,167.07,54.48Zm-.87,2.72c-3.55,0-6.9,3.6-6.9,12.28,0,9,3.33,15.77,8.35,15.77,3.34,0,6.57-2.35,6.57-12.64C174.22,63.16,171.32,57.2,166.2,57.2Z" transform="translate(-16.13 -9.53)"/><path class="cls-12" d="M182.3,87.18V84.89c4.12-.48,4.57-.79,4.57-5.83V64.74c0-4.7-.31-5-4-5.52V57.07a66.51,66.51,0,0,0,12.05-2.69V79.06c0,4.89.37,5.35,4.72,5.83v2.29Zm8.1-38.13a4.78,4.78,0,0,1-4.71-4.66,4.71,4.71,0,0,1,4.78-4.7,4.6,4.6,0,0,1,4.66,4.7A4.69,4.69,0,0,1,190.4,49.05Z" transform="translate(-16.13 -9.53)"/><path class="cls-12" d="M218.35,87.18V84.89c3.43-.43,3.72-.8,3.72-5.74V67c0-5.09-2.27-7.3-5.57-7.3-2.25,0-4.26,1.07-6.31,2.71V79.62c0,4.6.34,4.84,3.74,5.27v2.29h-16.3V84.89c4.1-.6,4.53-.75,4.53-5.45V64.51c0-4.45-.55-4.66-4-5.31V57.05a62,62,0,0,0,12.09-2.79c0,1.23-.09,3.68-.09,5.36,1.44-1,3-2.09,4.71-3.17a10.24,10.24,0,0,1,5.74-2c5.81,0,9.46,4.24,9.46,11.46V79.58c0,4.61.43,4.83,4.14,5.31v2.29Z" transform="translate(-16.13 -9.53)"/><path class="cls-12" d="M280,85.34a103.11,103.11,0,0,0-13.08,2.76V83.74c-1.3.84-3.12,1.9-4.42,2.74a8.82,8.82,0,0,1-4.33,1.57c-6,0-14.33-5.43-14.33-15.94,0-9.91,8.74-17.63,19.49-17.63a14.82,14.82,0,0,1,3.59.41V45.81c0-4.1-.41-4.38-5.1-4.91V38.7a87.93,87.93,0,0,0,13.17-2.45V78.36c0,3.84.46,4.25,3.17,4.54l1.84.19ZM266.87,61.19a6.75,6.75,0,0,0-6.16-3.63c-2.66,0-7.94,1.79-7.94,12.21,0,9.18,5.31,13,9,13.11a9,9,0,0,0,5.07-1.7Z" transform="translate(-16.13 -9.53)"/><path class="cls-12" d="M313.39,85.48a125.2,125.2,0,0,0-12.75,2.57V82.93c-3.28,2.72-6.35,5.12-10.32,5.12-5.62,0-9.28-3.56-9.28-10.48V63c0-3.52-.48-3.9-2.37-4.36l-1.69-.4V56.08c3.47-.14,8.83-.72,12.31-1.24-.17,2.77-.22,6.41-.22,10.74V75.84c0,5.26,2.71,6.92,5.48,6.92a8.12,8.12,0,0,0,6.09-2.56V63c0-3.51-.54-4.06-2.7-4.42l-2.22-.38V56.08a127.75,127.75,0,0,0,13-1.24v23.7c0,3.69.48,4.38,2.93,4.57l1.74.12Z" transform="translate(-16.13 -9.53)"/><path class="cls-12" d="M355.69,52.08a19.63,19.63,0,0,0-2.84-6.26c-1.46-1.89-2.44-2.28-6.1-2.28h-6.21c-2.32,0-2.58.17-2.58,2.49v16h8.13c4.57,0,5.08-1,6.16-6.05h2.48V71.67h-2.56c-.84-5-1.72-6.15-6.08-6.15H338V77.34c0,6.5.53,6.92,7,7.41v2.43H323V84.75c5.6-.48,6.25-.94,6.25-7.41V50.13c0-6.35-.68-6.83-6.25-7.31V40.38h23.86c6.29,0,9.49-.07,10.66-.14.08,1.7.41,7.49.77,11.46Z" transform="translate(-16.13 -9.53)"/><path class="cls-12" d="M383.77,80.46c-4.47,6.22-10,7.59-12.75,7.59-9.34,0-14.77-7.16-14.77-15.62a18.79,18.79,0,0,1,5.15-12.84,15.63,15.63,0,0,1,11.06-5.11A11.61,11.61,0,0,1,384,66c0,1.3-.15,2.32-1.12,2.56-1.39.34-11.21.89-18.75,1.18.11,8.34,4.94,12.25,10.1,12.25a12.29,12.29,0,0,0,8.25-3.39ZM370.92,57.35c-3,0-5.76,3.29-6.39,9,3.33,0,6.52-.09,10-.21,1.11,0,1.54-.27,1.54-1.44C376.11,61,374.15,57.35,370.92,57.35Z" transform="translate(-16.13 -9.53)"/><path class="cls-12" d="M419,85.48a125.2,125.2,0,0,0-12.75,2.57V82.93c-3.28,2.72-6.35,5.12-10.31,5.12-5.62,0-9.29-3.56-9.29-10.48V63c0-3.52-.48-3.9-2.37-4.36l-1.69-.4V56.08c3.47-.14,8.83-.72,12.31-1.24-.17,2.77-.22,6.41-.22,10.74V75.84c0,5.26,2.71,6.92,5.48,6.92a8.12,8.12,0,0,0,6.09-2.56V63c0-3.51-.54-4.06-2.7-4.42l-2.21-.38V56.08a127.81,127.81,0,0,0,13-1.24v23.7c0,3.69.48,4.38,2.93,4.57l1.74.12Z" transform="translate(-16.13 -9.53)"/></svg>